<?xml version="1.0" standalone="no"?>
<!DOCTYPE svg PUBLIC "-//W3C//DTD SVG 20010904//EN"
 "http://www.w3.org/TR/2001/REC-SVG-20010904/DTD/svg10.dtd">
<svg version="1.0" xmlns="http://www.w3.org/2000/svg"
 width="1200.000000pt" height="1200.000000pt" viewBox="0 0 1200.000000 1200.000000"
 preserveAspectRatio="xMidYMid meet">
<metadata>
Created by potrace 1.11, written by Peter Selinger 2001-2013
</metadata>
<g transform="translate(0.000000,1200.000000) scale(0.100000,-0.100000)"
fill="#000000" stroke="none">
<path d="M5750 11994 c-420 -23 -748 -68 -1105 -150 -1091 -252 -2085 -804
-2885 -1604 -944 -945 -1546 -2168 -1709 -3475 -36 -285 -45 -444 -45 -765 0
-402 26 -713 90 -1065 142 -781 425 -1499 854 -2170 462 -723 1100 -1360 1825
-1822 840 -535 1741 -837 2765 -925 187 -16 733 -16 920 0 1023 88 1925 390
2765 925 727 463 1369 1105 1832 1832 535 840 837 1742 925 2765 16 187 16
733 0 920 -88 1023 -390 1925 -925 2765 -463 727 -1105 1369 -1832 1832 -825
526 -1720 829 -2705 918 -160 15 -638 26 -770 19z m720 -1228 c267 -44 467
-132 685 -301 437 -340 642 -928 514 -1479 -112 -478 -465 -874 -929 -1041
-332 -120 -708 -111 -1040 23 l-75 31 -508 -507 c-280 -279 -629 -631 -777
-782 l-268 -276 23 -97 c63 -259 53 -519 -30 -802 -5 -16 138 -165 762 -793
l768 -772 70 31 c327 146 709 163 1050 47 383 -130 697 -416 863 -786 251
-556 129 -1208 -306 -1639 -205 -204 -446 -331 -742 -394 -150 -32 -410 -32
-560 0 -327 69 -600 226 -813 468 -211 239 -329 519 -359 851 -13 148 -3 307
30 444 l19 76 -792 792 -791 791 -66 -24 c-176 -67 -319 -92 -523 -92 -283 1
-514 65 -755 210 -285 171 -516 463 -625 788 -54 163 -70 266 -69 467 1 190
19 306 71 460 122 362 389 667 732 840 207 104 411 151 653 151 199 0 364 -32
537 -103 l74 -30 782 782 783 783 -18 62 c-68 239 -62 547 16 804 145 480 541
860 1026 987 170 44 423 57 588 30z m3242 -2171 c142 -30 260 -93 374 -198
278 -258 335 -674 138 -998 -69 -114 -203 -238 -321 -298 -190 -96 -448 -107
-647 -29 l-50 19 -429 -429 -428 -428 16 -65 c25 -91 23 -282 -3 -371 l-19
-66 422 -422 422 -422 89 30 c445 152 895 -78 1035 -528 20 -64 23 -97 24
-220 0 -125 -3 -155 -23 -220 -94 -296 -314 -501 -606 -561 -110 -23 -198 -24
-303 -4 -303 58 -546 282 -628 580 -25 94 -30 245 -11 345 l16 85 -433 432
-432 433 -78 -25 c-360 -115 -743 30 -932 353 -253 431 -48 992 422 1157 177
61 354 60 543 -6 l63 -21 425 425 425 426 -14 73 c-20 104 -18 297 5 373 44
147 102 251 195 348 119 126 260 202 446 241 48 10 236 4 297 -9z"/>
</g>
</svg>
