<?xml version="1.0" encoding="UTF-8" standalone="no"?>
<!DOCTYPE svg PUBLIC "-//W3C//DTD SVG 1.1//EN" "http://www.w3.org/Graphics/SVG/1.1/DTD/svg11.dtd">
<svg width="100%" height="100%" viewBox="0 0 63 63" version="1.1" xmlns="http://www.w3.org/2000/svg" xmlns:xlink="http://www.w3.org/1999/xlink" xml:space="preserve" xmlns:serif="http://www.serif.com/" style="fill-rule:evenodd;clip-rule:evenodd;stroke-linejoin:round;stroke-miterlimit:2;">
    <g transform="matrix(1,0,0,1,-897,-256)">
        <path d="M945,256C953.831,256 961,263.169 961,272L961,304C961,312.831 953.831,320 945,320L913,320C904.169,320 897,312.831 897,304L897,272C897,263.169 904.169,256 913,256L945,256ZM929,268.493C917.95,268.493 909,277.443 909,288.493C909,297.343 914.725,304.818 922.675,307.468C923.675,307.643 924.05,307.043 924.05,306.518C924.05,306.043 924.025,304.468 924.025,302.793C919,303.718 917.7,301.568 917.3,300.443C917.075,299.868 916.1,298.093 915.25,297.618C914.55,297.243 913.55,296.318 915.225,296.293C916.8,296.268 917.925,297.743 918.3,298.343C920.1,301.368 922.975,300.518 924.125,299.993C924.3,298.693 924.825,297.818 925.4,297.318C920.95,296.818 916.3,295.093 916.3,287.443C916.3,285.268 917.075,283.468 918.35,282.068C918.15,281.568 917.45,279.518 918.55,276.768C918.55,276.768 920.225,276.243 924.05,278.818C925.65,278.368 927.35,278.143 929.05,278.143C930.75,278.143 932.45,278.368 934.05,278.818C937.875,276.218 939.55,276.768 939.55,276.768C940.65,279.518 939.95,281.568 939.75,282.068C941.025,283.468 941.8,285.243 941.8,287.443C941.8,295.118 937.125,296.818 932.675,297.318C933.4,297.943 934.025,299.143 934.025,301.018C934.025,303.693 934,305.843 934,306.518C934,307.043 934.375,307.668 935.375,307.468C943.496,304.728 948.999,297.064 949,288.493C949,277.443 940.05,268.493 929,268.493Z" style="fill:rgb(0,249,255);"/>
    </g>
</svg>
