<?xml version="1.0" encoding="UTF-8" standalone="no"?>
<!DOCTYPE svg PUBLIC "-//W3C//DTD SVG 1.1//EN" "http://www.w3.org/Graphics/SVG/1.1/DTD/svg11.dtd">
<svg width="100%" height="100%" viewBox="0 0 63 63" version="1.1" xmlns="http://www.w3.org/2000/svg" xmlns:xlink="http://www.w3.org/1999/xlink" xml:space="preserve" xmlns:serif="http://www.serif.com/" style="fill-rule:evenodd;clip-rule:evenodd;stroke-linejoin:round;stroke-miterlimit:2;">
    <g id="vk64" transform="matrix(1,0,0,1,-656,-16)">
        <path d="M704,16C712.831,16 720,23.169 720,32L720,64C720,72.831 712.831,80 704,80L672,80C663.169,80 656,72.831 656,64L656,32C656,23.169 663.169,16 672,16L704,16ZM707.788,57.2C707.739,57.095 707.694,57.009 707.652,56.939C706.958,55.689 705.632,54.155 703.674,52.336L703.633,52.295L703.612,52.274L703.591,52.253L703.57,52.253C702.682,51.406 702.119,50.837 701.884,50.545C701.453,49.99 701.356,49.428 701.592,48.858C701.758,48.428 702.383,47.519 703.466,46.13C704.036,45.394 704.487,44.804 704.82,44.36C707.222,41.167 708.263,39.126 707.944,38.237L707.82,38.029C707.736,37.904 707.521,37.79 707.174,37.686C706.827,37.582 706.383,37.564 705.841,37.634L699.843,37.675C699.746,37.641 699.607,37.644 699.427,37.686C699.246,37.727 699.156,37.748 699.156,37.748L699.051,37.801L698.969,37.863C698.899,37.905 698.823,37.978 698.739,38.082C698.656,38.185 698.587,38.307 698.532,38.446C697.879,40.126 697.136,41.688 696.303,43.132C695.789,43.993 695.317,44.739 694.886,45.371C694.456,46.002 694.095,46.468 693.804,46.766C693.512,47.065 693.249,47.304 693.012,47.484C692.776,47.665 692.596,47.742 692.471,47.714C692.346,47.686 692.228,47.658 692.117,47.63C691.922,47.505 691.766,47.335 691.648,47.12C691.53,46.905 691.45,46.634 691.409,46.308C691.367,45.981 691.343,45.7 691.336,45.464C691.329,45.228 691.332,44.895 691.346,44.464C691.361,44.034 691.367,43.743 691.367,43.59C691.367,43.062 691.378,42.489 691.398,41.872C691.419,41.254 691.436,40.764 691.45,40.404C691.465,40.043 691.471,39.661 691.471,39.258C691.471,38.855 691.447,38.539 691.398,38.31C691.35,38.081 691.277,37.859 691.18,37.644C691.083,37.429 690.94,37.262 690.753,37.144C690.566,37.026 690.333,36.932 690.055,36.863C689.32,36.696 688.382,36.606 687.244,36.592C684.661,36.564 683.002,36.731 682.266,37.092C681.975,37.245 681.711,37.453 681.475,37.717C681.225,38.022 681.19,38.189 681.371,38.216C682.204,38.341 682.794,38.64 683.141,39.112L683.266,39.362C683.363,39.542 683.46,39.862 683.557,40.32C683.655,40.778 683.717,41.285 683.745,41.84C683.814,42.854 683.814,43.721 683.745,44.443C683.675,45.165 683.61,45.728 683.547,46.13C683.484,46.533 683.391,46.859 683.266,47.109C683.141,47.359 683.057,47.512 683.016,47.567C682.974,47.623 682.939,47.658 682.912,47.671C682.731,47.74 682.544,47.776 682.349,47.776C682.155,47.776 681.919,47.678 681.641,47.484C681.364,47.289 681.076,47.022 680.777,46.682C680.479,46.342 680.142,45.866 679.767,45.255C679.392,44.645 679.003,43.923 678.601,43.09L678.268,42.485C678.059,42.097 677.775,41.531 677.414,40.788C677.053,40.045 676.733,39.327 676.456,38.632C676.345,38.341 676.178,38.119 675.956,37.966L675.852,37.903C675.782,37.848 675.671,37.789 675.519,37.726C675.366,37.664 675.206,37.619 675.04,37.591L669.333,37.633C668.75,37.633 668.354,37.765 668.146,38.029L668.063,38.153C668.021,38.223 668,38.334 668,38.487C668,38.64 668.042,38.827 668.125,39.049C668.958,41.007 669.864,42.895 670.843,44.714C671.822,46.533 672.672,47.998 673.394,49.108C674.116,50.219 674.852,51.267 675.601,52.253C676.351,53.238 676.848,53.87 677.09,54.148C677.334,54.426 677.524,54.634 677.663,54.773L678.184,55.272C678.517,55.606 679.007,56.005 679.652,56.47C680.298,56.935 681.013,57.393 681.797,57.845C682.582,58.296 683.495,58.664 684.536,58.948C685.577,59.233 686.591,59.347 687.577,59.292L689.972,59.292C690.458,59.25 690.826,59.097 691.076,58.834L691.159,58.729C691.214,58.647 691.267,58.518 691.315,58.345C691.363,58.171 691.388,57.98 691.388,57.772C691.373,57.175 691.419,56.637 691.523,56.158C691.626,55.679 691.745,55.318 691.877,55.075C692.009,54.832 692.159,54.627 692.325,54.461C692.491,54.294 692.61,54.194 692.679,54.159C692.749,54.124 692.804,54.1 692.845,54.086C693.179,53.975 693.571,54.083 694.022,54.409C694.474,54.735 694.897,55.138 695.293,55.617C695.689,56.096 696.164,56.634 696.719,57.231C697.275,57.828 697.761,58.272 698.177,58.564L698.594,58.814C698.872,58.981 699.233,59.133 699.677,59.272C700.121,59.411 700.509,59.446 700.843,59.376L706.174,59.293C706.702,59.293 707.112,59.206 707.403,59.032C707.695,58.859 707.868,58.668 707.924,58.46C707.979,58.252 707.982,58.015 707.934,57.751C707.885,57.488 707.836,57.304 707.788,57.2Z" style="fill:rgb(0,249,255);"/>
    </g>
</svg>
