<?xml version="1.0" encoding="UTF-8" standalone="no"?>
<!DOCTYPE svg PUBLIC "-//W3C//DTD SVG 1.1//EN" "http://www.w3.org/Graphics/SVG/1.1/DTD/svg11.dtd">
<svg width="100%" height="100%" viewBox="0 0 64 64" version="1.1" xmlns="http://www.w3.org/2000/svg" xmlns:xlink="http://www.w3.org/1999/xlink" xml:space="preserve" xmlns:serif="http://www.serif.com/" style="fill-rule:evenodd;clip-rule:evenodd;stroke-linejoin:round;stroke-miterlimit:2;">
    <g id="yt64" transform="matrix(1,0,0,1,-897,-176)">
        <path d="M945,176C953.831,176 961,183.169 961,192L961,224C961,232.831 953.831,240 945,240L913,240C904.169,240 897,232.831 897,224L897,192C897,183.169 904.169,176 913,176L945,176ZM949.976,208.872C949.444,206.561 947.554,204.856 945.278,204.602C939.891,204 934.436,203.997 929.007,204C923.577,203.997 918.122,204 912.734,204.602C910.459,204.856 908.57,206.561 908.038,208.872C907.281,212.163 907.272,215.756 907.272,219.144C907.272,222.533 907.272,226.125 908.029,229.416C908.561,231.727 910.45,233.432 912.726,233.686C918.113,234.288 923.567,234.291 928.998,234.288C934.429,234.291 939.882,234.288 945.271,233.686C947.545,233.432 949.436,231.727 949.967,229.416C950.724,226.125 950.728,222.533 950.728,219.144C950.727,215.755 950.733,212.163 949.976,208.872ZM947.491,221.368L942.238,221.368L942.238,223.937C942.238,225.279 942.677,225.949 943.579,225.949C944.226,225.949 944.602,225.597 944.752,224.895C944.777,224.753 944.811,224.169 944.811,223.116L947.49,223.116L947.49,223.499C947.49,224.346 947.458,224.929 947.434,225.191C947.346,225.773 947.139,226.3 946.821,226.764C946.094,227.817 945.016,228.336 943.644,228.336C942.271,228.336 941.225,227.841 940.466,226.852C939.909,226.126 939.623,224.984 939.623,223.444L939.623,218.368C939.623,216.818 939.876,215.685 940.435,214.953C941.193,213.961 942.238,213.467 943.58,213.467C944.897,213.467 945.942,213.961 946.678,214.953C947.228,215.685 947.491,216.818 947.491,218.368L947.491,221.368ZM937.579,223.786C937.579,225.127 937.489,226.092 937.313,226.707C936.962,227.785 936.26,228.335 935.215,228.335C934.281,228.335 933.379,227.816 932.501,226.732L932.501,228.137L929.875,228.137L929.875,208.685L932.501,208.685L932.501,215.037C933.349,213.993 934.25,213.465 935.215,213.465C936.26,213.465 936.963,214.016 937.313,215.1C937.49,215.684 937.579,216.642 937.579,218.014L937.579,223.786ZM927.602,228.136L924.974,228.136L924.974,226.555C923.93,227.752 922.939,228.335 921.973,228.335C921.127,228.335 920.544,227.992 920.281,227.258C920.138,226.82 920.05,226.126 920.05,225.103L920.05,213.643L922.676,213.643L922.676,224.314C922.676,224.929 922.676,225.249 922.699,225.335C922.762,225.743 922.962,225.949 923.314,225.949C923.841,225.949 924.391,225.543 924.974,224.719L924.974,213.643L927.602,213.643L927.602,228.136ZM919.667,211.423L916.522,211.423L916.522,228.135L913.6,228.135L913.6,211.423L910.513,211.423L910.513,208.685L919.667,208.685L919.667,211.423ZM933.81,215.83C933.378,215.83 932.939,216.034 932.501,216.469L932.501,225.302C932.939,225.741 933.378,225.949 933.81,225.949C934.568,225.949 934.953,225.302 934.953,223.993L934.953,217.807C934.953,216.501 934.568,215.83 933.81,215.83ZM943.556,215.83C942.678,215.83 942.238,216.501 942.238,217.84L942.238,219.181L944.864,219.181L944.864,217.84C944.863,216.501 944.425,215.83 943.556,215.83ZM935.277,201.855C936.245,201.855 937.252,201.267 938.309,200.057L938.309,201.654L940.963,201.654L940.963,187.007L938.309,187.007L938.309,198.202C937.721,199.033 937.163,199.444 936.633,199.444C936.277,199.444 936.068,199.234 936.01,198.822C935.978,198.735 935.978,198.412 935.978,197.791L935.978,187.007L933.332,187.007L933.332,198.589C933.332,199.623 933.421,200.323 933.567,200.767C933.834,201.509 934.423,201.855 935.277,201.855ZM927.229,201.855C928.558,201.855 929.592,201.355 930.325,200.356C930.881,199.623 931.148,198.468 931.148,196.911L931.148,191.782C931.148,190.217 930.882,189.072 930.325,188.332C929.592,187.33 928.559,186.83 927.229,186.83C925.906,186.83 924.873,187.33 924.139,188.332C923.575,189.072 923.308,190.217 923.308,191.782L923.308,196.911C923.308,198.468 923.575,199.623 924.139,200.356C924.873,201.355 925.906,201.855 927.229,201.855ZM916.801,193.694L916.801,201.654L919.744,201.654L919.744,193.694L923.284,182L920.308,182L918.3,189.718L916.211,182L913.114,182C913.734,183.822 914.38,185.653 915,187.476C915.945,190.217 916.534,192.284 916.801,193.694ZM925.962,191.251C925.962,189.895 926.373,189.22 927.229,189.22C928.084,189.22 928.494,189.895 928.494,191.251L928.494,197.411C928.494,198.767 928.084,199.445 927.229,199.445C926.373,199.445 925.962,198.767 925.962,197.411L925.962,191.251Z" style="fill:rgb(0,249,255);"/>
    </g>
</svg>
